#!OML:ASF H:\Dans Jumps\Project 1\Capture day 1\Session 1\subject.ASF
:FULLY-SPECIFIED
:DEGREES
279
root 0.104741 11.818 -17.4121 21.9603 -0.979007 -2.08006
lowerback 49.7736 1.29832 -0.67443
upperback 8.83811 1.61104 3.01267
thorax -10.7954 0.598152 2.89876
lowerneck -20.8543 0.899201 -1.02358
upperneck -1.33026 1.6337 -3.42144
head 3.26033 0.645329 -0.817598
rclavicle -2.78299e-015 -1.17283e-014
rhumerus -41.5584 -3.53027 -76.8392
rradius 35.0608
rwrist 16.6636
rhand -18.3956 -22.4209
rfingers 7.12502
rthumb 7.88849 -52.2537
lclavicle -2.78299e-015 -1.17283e-014
lhumerus -44.4325 -6.40032 92.0863
lradius 23.0514
lwrist 29.2335
lhand -29.3529 -8.5063
lfingers 7.12502
lthumb -2.69257 21.4564
rfemur -94.4639 -3.52944 23.1399
rtibia 103.34
rfoot -30.2516 -8.29044
rtoes -0.319362
lfemur -94.5738 8.98916 -24.0144
ltibia 103.334
lfoot -28.4453 13.6522
ltoes -4.85903
280
root 0.101284 11.7939 -17.4107 21.9532 -0.924389 -2.0152
lowerback 50.3688 1.29111 -0.680014
upperback 8.60754 1.6058 3.01151
thorax -11.1433 0.596821 2.90403
lowerneck -20.9838 0.871601 -1.05068
upperneck -1.48798 1.59959 -3.40212
head 3.22643 0.630597 -0.808912
rclavicle 5.1684e-015 5.36719e-015
rhumerus -41.9726 -3.59525 -76.7567
rradius 35.066
rwrist 16.5805
rhand -18.4254 -22.3871
rfingers 7.12502
rthumb 7.85975 -52.221
lclavicle 5.1684e-015 5.36719e-015
lhumerus -44.972 -6.14363 91.9824
lradius 22.8913
lwrist 29.0694
lhand -29.3525 -8.57109
lfingers 7.12502
lthumb -2.69215 21.3917
rfemur -94.6148 -3.52027 23.0637
rtibia 103.599
rfoot -30.3827 -8.46476
rtoes -0.273592
lfemur -94.7141 8.93791 -24.07
ltibia 103.552
lfoot -28.5101 13.7457
ltoes -4.79652
281
root 0.0973918 11.7709 -17.4077 21.9461 -0.869109 -1.94954
lowerback 50.976 1.28997 -0.691655
upperback 8.37469 1.60517 3.01452
thorax -11.4935 0.597464 2.91504
lowerneck -21.1112 0.841902 -1.07487
upperneck -1.65094 1.56205 -3.38727
head 3.19028 0.614026 -0.802596
rclavicle -1.35174e-014 -2.15681e-014
rhumerus -42.3774 -3.66407 -76.6748
rradius 35.0511
rwrist 16.524
rhand -18.493 -22.331
rfingers 7.12502
rthumb 7.7945 -52.1673
lclavicle -1.35174e-014 -2.15681e-014
lhumerus -45.4923 -5.85083 91.8544
lradius 22.71
lwrist 28.8756
lhand -29.3498 -8.58837
lfingers 7.12502
lthumb -2.68956 21.3744
rfemur -94.7488 -3.50794 22.9871
rtibia 103.856
rfoot -30.5228 -8.65602
rtoes -0.2259
lfemur -94.8378 8.88909 -24.1236
ltibia 103.766
lfoot -28.5832 13.8389
ltoes -4.7115
282
root 0.0932588 11.7489 -17.4031 21.9392 -0.815065 -1.88469
lowerback 51.5885 1.29487 -0.708599
upperback 8.14211 1.60937 3.02218
thorax -11.8422 0.600144 2.93183
lowerneck -21.2365 0.812526 -1.09486
upperneck -1.81648 1.52434 -3.38232
head 3.15297 0.596942 -0.800421
rclavicle 6.36111e-015 -3.57812e-015
rhumerus -42.7713 -3.74155 -76.5882
rradius 35.0219
rwrist 16.5065
rhand -18.5793 -22.2707
rfingers 7.12502
rthumb 7.71121 -52.1101
lclavicle 6.36111e-015 -3.57812e-015
lhumerus -45.989 -5.52806 91.7089
lradius 22.5087
lwrist 28.6756
lhand -29.4396 -8.62066
lfingers 7.12502
lthumb -2.77627 21.341
rfemur -94.8647 -3.49351 22.9135
rtibia 104.108
rfoot -30.6735 -8.8605
rtoes -0.176423
lfemur -94.9451 8.84556 -24.1757
ltibia 103.975
lfoot -28.6661 13.9243
ltoes -4.60628
283
root 0.0891632 11.7278 -17.3969 21.9327 -0.761825 -1.829
lowerback 52.2069 1.30456 -0.72069
upperback 7.90629 1.62224 3.03501
thorax -12.1935 0.606312 2.94844
lowerneck -21.3547 0.785884 -1.10215
upperneck -1.98141 1.48804 -3.39668
head 3.11494 0.579637 -0.806956
rclavicle -2.38542e-015 1.09332e-015
rhumerus -43.1631 -3.83262 -76.4936
rradius 34.9881
rwrist 16.5415
rhand -18.6737 -22.2214
rfingers 7.12502
rthumb 7.62008 -52.0641
lclavicle -2.38542e-015 1.09332e-015
lhumerus -46.4706 -5.19731 91.5604
lradius 22.2996
lwrist 28.5065
lhand -29.6285 -8.6316
lfingers 7.12502
lthumb -2.95869 21.3276
rfemur -94.9617 -3.47575 22.8519
rtibia 104.354
rfoot -30.8327 -9.07254
rtoes -0.121048
lfemur -95.0402 8.81065 -24.22
ltibia 104.182
lfoot -28.7582 13.9984
ltoes -4.49768
284
root 0.0852794 11.7076 -17.3891 21.9266 -0.710467 -1.7812
lowerback 52.83 1.31788 -0.726205
upperback 7.66658 1.64328 3.05154
thorax -12.5478 0.615695 2.96268
lowerneck -21.4713 0.759597 -1.10787
upperneck -2.13797 1.45248 -3.41928
head 3.07975 0.562167 -0.816516
rclavicle 4.96962e-015 3.28989e-014
rhumerus -43.552 -3.9459 -76.3855
rradius 34.9518
rwrist 16.641
rhand -18.7451 -22.1828
rfingers 7.12502
rthumb 7.55122 -52.028
lclavicle 4.96962e-015 3.28989e-014
lhumerus -46.9377 -4.87217 91.4197
lradius 22.0862
lwrist 28.3855
lhand -29.8755 -8.64832
lfingers 7.12502
lthumb -3.19726 21.3075
rfemur -95.044 -3.45908 22.8027
rtibia 104.594
rfoot -30.9923 -9.28703
rtoes -0.0617726
lfemur -95.1253 8.78351 -24.2596
ltibia 104.385
lfoot -28.8592 14.0553
ltoes -4.38572
285
root 0.0818542 11.6882 -17.3799 21.921 -0.657422 -1.74525
lowerback 53.4549 1.32968 -0.715424
upperback 7.42398 1.67162 3.06999
thorax -12.9035 0.62763 2.96847
lowerneck -21.5906 0.731779 -1.11521
upperneck -2.28755 1.41553 -3.44146
head 3.04748 0.543888 -0.825803
rclavicle 6.36111e-015 2.51463e-014
rhumerus -43.935 -4.08143 -76.2663
rradius 34.9177
rwrist 16.7888
rhand -18.7716 -22.17
rfingers 7.12502
rthumb 7.5256 -52.0161
lclavicle 6.36111e-015 2.51463e-014
lhumerus -47.3847 -4.56677 91.2939
lradius 21.868
lwrist 28.3242
lhand -30.1442 -8.65026
lfingers 7.12502
lthumb -3.45675 21.3015
rfemur -95.1141 -3.44859 22.7717
rtibia 104.825
rfoot -31.1476 -9.50454
rtoes -0.0273763
lfemur -95.2041 8.76195 -24.2906
ltibia 104.585
lfoot -28.9664 14.0933
ltoes -4.26804
286
root 0.0789437 11.6694 -17.3693 21.9155 -0.600993 -1.71924
lowerback 54.077 1.33622 -0.687073
upperback 7.18018 1.70361 3.08781
thorax -13.2578 0.64048 2.96407
lowerneck -21.7112 0.70243 -1.12828
upperneck -2.43415 1.3777 -3.45499
head 3.01627 0.52556 -0.831239
rclavicle 3.37934e-015 -7.7526e-015
rhumerus -44.3045 -4.2333 -76.1419
rradius 34.8836
rwrist 16.9617
rhand -18.749 -22.1804
rfingers 7.12502
rthumb 7.54743 -52.0257
lclavicle 3.37934e-015 -7.7526e-015
lhumerus -47.8031 -4.2778 91.1782
lradius 21.6396
lwrist 28.3056
lhand -30.3532 -8.63212
lfingers 7.12502
lthumb -3.65852 21.3162
rfemur -95.1741 -3.45003 22.7576
rtibia 105.048
rfoot -31.2986 -9.72062
rtoes -0.0187017
lfemur -95.2765 8.7424 -24.3135
ltibia 104.781
lfoot -29.0793 14.1151
ltoes -4.14032
287
root 0.0763961 11.6517 -17.3571 21.9103 -0.540393 -1.70454
lowerback 54.6879 1.33643 -0.64123
upperback 6.94066 1.73819 3.10447
thorax -13.6033 0.653632 2.94941
lowerneck -21.8359 0.672886 -1.14865
upperneck -2.58286 1.34093 -3.45621
head 2.98477 0.508431 -0.831104
rclavicle -3.77691e-015 2.09718e-014
rhumerus -44.6441 -4.40286 -76.0157
rradius 34.8325
rwrist 17.1457
rhand -18.6987 -22.1966
rfingers 7.12502
rthumb 7.59599 -52.0402
lclavicle -3.77691e-015 2.09718e-014
lhumerus -48.1787 -4.00329 91.07
lradius 21.395
lwrist 28.3004
lhand -30.4549 -8.58176
lfingers 7.12502
lthumb -3.75675 21.3649
rfemur -95.2212 -3.46354 22.7625
rtibia 105.261
rfoot -31.4472 -9.93491
rtoes -0.0407894
lfemur -95.3397 8.72691 -24.3264
ltibia 104.973
lfoot -29.1961 14.1269
ltoes -4.00025
288
root 0.0740103 11.6354 -17.343 21.9049 -0.477535 -1.68931
lowerback 55.2794 1.33112 -0.588102
upperback 6.70761 1.77022 3.11572
thorax -13.9365 0.665334 2.92681
lowerneck -21.9578 0.644857 -1.17144
upperneck -2.73562 1.30613 -3.44496
head 2.9511 0.49305 -0.82614
rclavicle -6.16232e-015 -2.18663e-015
rhumerus -44.9459 -4.58737 -75.8971
rradius 34.7591
rwrist 17.3049
rhand -18.6362 -22.218
rfingers 7.12502
rthumb 7.65627 -52.0594
lclavicle -6.16232e-015 -2.18663e-015
lhumerus -48.4964 -3.72986 90.9523
lradius 21.1168
lwrist 28.258
lhand -30.3157 -8.47781
lfingers 7.12502
lthumb -3.6223 21.4712
rfemur -95.2523 -3.49502 22.7756
rtibia 105.465
rfoot -31.5997 -10.1432
rtoes -0.0683951
lfemur -95.385 8.71201 -24.3398
ltibia 105.155
lfoot -29.3162 14.1373
ltoes -3.84154
289
root 0.0715377 11.6211 -17.3266 21.8994 -0.410401 -1.67563
lowerback 55.8413 1.32 -0.528106
upperback 6.48435 1.79926 3.12213
thorax -14.2529 0.675412 2.89718
lowerneck -22.069 0.620225 -1.19071
upperneck -2.8967 1.2742 -3.4253
head 2.91241 0.479795 -0.818675
rclavicle 3.57812e-015 -1.19271e-014
rhumerus -45.2034 -4.78266 -75.7924
rradius 34.6524
rwrist 17.4396
rhand -18.6004 -22.2295
rfingers 7.12502
rthumb 7.69089 -52.0697
lclavicle 3.57812e-015 -1.19271e-014
lhumerus -48.7481 -3.46149 90.8258
lradius 20.8029
lwrist 28.1507
lhand -30.0685 -8.32195
lfingers 7.12502
lthumb -3.38363 21.6309
rfemur -95.2579 -3.54287 22.7993
rtibia 105.658
rfoot -31.7637 -10.3484
rtoes -0.0826686
lfemur -95.4053 8.69961 -24.3497
ltibia 105.327
lfoot -29.4449 14.148
ltoes -3.66487
290
root 0.0687495 11.6092 -17.3074 21.8938 -0.34386 -1.65478
lowerback 56.3621 1.30869 -0.473184
upperback 6.27416 1.8248 3.12315
thorax -14.548 0.684139 2.86544
lowerneck -22.1589 0.600375 -1.19933
upperneck -3.06893 1.24526 -3.40677
head 2.86599 0.468357 -0.813181
rclavicle -1.78906e-015 -2.18663e-014
rhumerus -45.4092 -4.99241 -75.7024
rradius 34.509
rwrist 17.5364
rhand -18.6016 -22.2352
rfingers 7.12502
rthumb 7.68966 -52.0754
lclavicle -1.78906e-015 -2.18663e-014
lhumerus -48.9172 -3.18814 90.681
lradius 20.4376
lwrist 27.9272
lhand -29.773 -8.15102
lfingers 7.12502
lthumb -3.09825 21.8062
rfemur -95.2342 -3.60567 22.8238
rtibia 105.837
rfoot -31.9435 -10.5496
rtoes -0.0699665
lfemur -95.3923 8.69114 -24.3648
ltibia 105.484
lfoot -29.5864 14.1602
ltoes -3.47694
291
root 0.06548 11.6001 -17.2851 21.8881 -0.281476 -1.62633
lowerback 56.8388 1.3032 -0.430516
upperback 6.07558 1.85014 3.12291
thorax -14.8245 0.69316 2.83776
lowerneck -22.2237 0.583085 -1.20397
upperneck -3.24765 1.21803 -3.38876
head 2.81276 0.458094 -0.808376
rclavicle 5.76476e-015 -2.29596e-014
rhumerus -45.5566 -5.20792 -75.6258
rradius 34.3289
rwrist 17.5784
rhand -18.6238 -22.2447
rfingers 7.12502
rthumb 7.66829 -52.0856
lclavicle 5.76476e-015 -2.29596e-014
lhumerus -48.9939 -2.90272 90.5162
lradius 20.013
lwrist 27.5571
lhand -29.5038 -7.94093
lfingers 7.12502
lthumb -2.83829 22.0199
rfemur -95.1769 -3.67651 22.8459
rtibia 106.002
rfoot -32.1395 -10.7452
rtoes -0.0175345
lfemur -95.3406 8.68923 -24.3844
ltibia 105.622
lfoot -29.7443 14.1759
ltoes -3.27933
